HIERARCHY
ROOT Hips
{
	OFFSET -21.947001 39.810204 44.525997
	CHANNELS 6 Xposition Yposition Zposition Zrotation Xrotation Yrotation
	JOINT Chest
	{
		OFFSET -0.201599 0.334099 6.453201
		CHANNELS 6 Xposition Yposition Zposition Zrotation Xrotation Yrotation
		JOINT Chest2
		{
			OFFSET 0.000000 0.000000 3.568001
			CHANNELS 6 Xposition Yposition Zposition Zrotation Xrotation Yrotation
			JOINT Neck
			{
				OFFSET 0.000000 0.000000 8.296402
				CHANNELS 6 Xposition Yposition Zposition Zrotation Xrotation Yrotation
				JOINT Head
				{
					OFFSET 0.000000 0.000000 2.173901
					CHANNELS 6 Xposition Yposition Zposition Zrotation Xrotation Yrotation
					End Site
					{
						OFFSET 0.000000 0.000000 7.891998
					}
				}
			}
			JOINT LeftCollar
			{
				OFFSET 1.927601 0.221401 6.049000
				CHANNELS 6 Xposition Yposition Zposition Zrotation Xrotation Yrotation
				JOINT LeftShoulder
				{
					OFFSET 4.959700 0.000000 0.000000
					CHANNELS 6 Xposition Yposition Zposition Zrotation Xrotation Yrotation
					JOINT LeftElbow
					{
						OFFSET 0.000000 0.000000 -8.654202
						CHANNELS 6 Xposition Yposition Zposition Zrotation Xrotation Yrotation
						JOINT LeftWrist
						{
							OFFSET 0.000000 0.000000 -13.864101
							CHANNELS 6 Xposition Yposition Zposition Zrotation Xrotation Yrotation
							End Site
							{
								OFFSET 0.000000 0.000000 -2.173901
							}
						}
					}
				}
			}
			JOINT RightCollar
			{
				OFFSET -3.155701 -0.764999 6.687801
				CHANNELS 6 Xposition Yposition Zposition Zrotation Xrotation Yrotation
				JOINT RightShoulder
				{
					OFFSET -3.592899 0.000000 0.000000
					CHANNELS 6 Xposition Yposition Zposition Zrotation Xrotation Yrotation
					JOINT RightElbow
					{
						OFFSET 0.000000 0.000000 -10.352398
						CHANNELS 6 Xposition Yposition Zposition Zrotation Xrotation Yrotation
						JOINT RightWrist
						{
							OFFSET 0.000000 0.000000 -12.750301
							CHANNELS 6 Xposition Yposition Zposition Zrotation Xrotation Yrotation
							End Site
							{
								OFFSET 0.000000 0.000000 -2.173901
							}
						}
					}
				}
			}
		}
	}
	JOINT LeftHip
	{
		OFFSET 2.460600 -0.518101 -2.735500
		CHANNELS 6 Xposition Yposition Zposition Zrotation Xrotation Yrotation
		JOINT LeftKnee
		{
			OFFSET 0.000000 -0.000004 -17.005899
			CHANNELS 6 Xposition Yposition Zposition Zrotation Xrotation Yrotation
			JOINT LeftAnkle
			{
				OFFSET 0.000000 0.000000 -19.194401
				CHANNELS 6 Xposition Yposition Zposition Zrotation Xrotation Yrotation
				End Site
				{
					OFFSET 0.000000 -8.134600 0.000000
				}
			}
		}
	}
	JOINT RightHip
	{
		OFFSET -3.115499 -0.679600 -2.320301
		CHANNELS 6 Xposition Yposition Zposition Zrotation Xrotation Yrotation
		JOINT RightKnee
		{
			OFFSET 0.000000 -0.000004 -17.680401
			CHANNELS 6 Xposition Yposition Zposition Zrotation Xrotation Yrotation
			JOINT RightAnkle
			{
				OFFSET 0.000000 0.000000 -16.993797
				CHANNELS 6 Xposition Yposition Zposition Zrotation Xrotation Yrotation
				End Site
				{
					OFFSET 0.000000 -8.842300 0.000000
				}
			}
		}
	}
}
MOTION
Frames: 9
Frame Time: 0.041667
-45.994701 4.298004 43.172394 2475.055977 22.866116 1.517389 -0.201599 0.334091 6.453199 3.043819 -9.768735 -6.790458 0.000000 0.000004 3.568005 -2.282082 3.184924 0.145842 -0.000001 0.000001 8.296396 165.320016 -174.465885 190.576553 0.000000 -0.000005 2.173905 3.660706 -7.248872 -6.693039 1.927602 0.221408 6.048995 -10.207356 -0.957669 -22.824180 4.959703 0.000005 0.000010 193.425206 204.508158 25.130195 -0.000007 0.000007 -8.654193 52.234944 -19.912826 10.056086 -0.000005 0.000005 -13.864120 4085.520600 -162.021677 211.293596 -3.155699 -0.764994 6.687810 33.092837 4.757804 40.302272 -3.592897 0.000001 0.000001 -189.689079 203.776836 327.603904 -0.000002 -0.000004 -10.352399 -380.307474 -27.632005 -347.424238 0.000010 -0.000002 -12.750299 15.454319 189.941195 -125.086855 2.460596 -0.518110 -2.735509 33.406851 -24.466902 14.385036 -0.000002 -0.000005 -17.005901 -221.534522 152.904330 -159.285571 0.000002 0.000006 -19.194405 568.799412 168.250973 183.662434 -3.115500 -0.679601 -2.320299 44.022516 46.020305 -12.080363 -0.000004 0.000002 -17.680403 -856.747784 184.436869 -285.313503 0.000003 -0.000002 -16.993792 1003.035464 47.005891 -433.963254
-45.992294 4.263000 43.157997 2475.301646 22.864958 1.438387 -0.201600 0.334093 6.453205 3.043191 -9.835183 -6.809124 -0.000002 0.000005 3.567991 -2.358999 3.187251 0.137430 -0.000005 0.000001 8.296398 165.182538 -174.505774 190.494604 0.000005 0.000003 2.173907 3.641791 -7.197687 -6.686491 1.927597 0.221401 6.048998 -10.307748 -0.728424 -22.867750 4.959699 0.000000 0.000002 193.636806 204.775587 25.468759 -0.000001 -0.000005 -8.654197 52.127280 -20.302929 9.994917 0.000001 0.000004 -13.864094 4085.580050 -162.032277 211.609943 -3.155707 -0.764997 6.687803 33.621890 5.235031 39.947242 -3.592898 0.000000 0.000010 -190.402492 203.848089 327.942681 -0.000002 0.000000 -10.352395 -380.547842 -27.685689 -347.581442 0.000001 -0.000001 -12.750299 16.098583 190.333166 -125.072744 2.460599 -0.518107 -2.735499 33.199992 -24.462669 14.387793 -0.000003 0.000001 -17.005894 -222.271554 153.060441 -158.923079 0.000004 0.000007 -19.194403 569.575704 168.241015 183.717677 -3.115494 -0.679602 -2.320289 44.301136 46.088788 -12.034668 -0.000008 -0.000004 -17.680397 -857.363758 185.282938 -285.238426 0.000003 -0.000004 -16.993792 1002.268079 47.048238 -434.109748
-45.988998 4.230003 43.140797 2475.511032 22.874683 1.317930 -0.201604 0.334088 6.453207 2.995186 -9.892502 -6.792066 0.000002 0.000002 3.567998 -2.358466 3.160995 0.133321 -0.000007 -0.000001 8.296391 165.069334 -174.559117 190.430250 -0.000003 -0.000003 2.173906 3.594407 -7.162961 -6.677841 1.927600 0.221401 6.048994 -10.513814 -0.566036 -22.760472 4.959702 0.000005 -0.000006 193.720872 204.934362 25.453287 0.000001 0.000000 -8.654197 52.532754 -20.524777 10.049659 0.000000 -0.000001 -13.864092 4085.701136 -161.771446 212.357603 -3.155709 -0.765000 6.687795 34.810168 6.482459 37.895659 -3.592891 0.000002 -0.000001 -191.192431 204.678967 330.273551 -0.000011 -0.000001 -10.352404 -380.684692 -27.611106 -347.977757 0.000007 -0.000001 -12.750299 16.629714 190.386045 -125.275245 2.460604 -0.518105 -2.735502 33.040415 -24.468926 14.469559 -0.000008 -0.000002 -17.005899 -223.059799 153.208246 -158.532994 -0.000011 -0.000006 -19.194403 570.010377 168.531216 186.360509 -3.115497 -0.679603 -2.320293 44.691041 46.147258 -12.111129 -0.000005 -0.000000 -17.680401 -857.928587 185.645949 -285.216843 -0.000004 -0.000004 -16.993792 1002.036945 47.123070 -434.165045
-45.989796 4.198799 43.124695 2475.731565 22.885126 1.248825 -0.201602 0.334096 6.453206 2.923554 -9.980301 -6.856891 -0.000004 0.000006 3.567999 -2.349377 3.157520 0.135075 -0.000004 0.000000 8.296394 164.964669 -174.600317 190.402520 -0.000002 -0.000004 2.173907 3.521087 -7.122734 -6.650127 1.927597 0.221405 6.048996 -10.829575 -0.318866 -22.444350 4.959702 0.000007 0.000002 193.838064 205.107384 25.223284 0.000002 0.000004 -8.654195 52.809486 -20.655320 9.988463 -0.000002 -0.000001 -13.864092 4086.102860 -161.387699 213.084745 -3.155706 -0.764997 6.687794 35.641962 7.446040 37.443329 -3.592896 0.000004 0.000001 -192.747119 204.921262 330.553617 -0.000005 -0.000004 -10.352398 -381.220397 -27.692884 -348.202334 0.000007 -0.000006 -12.750298 17.177518 190.693882 -125.445290 2.460597 -0.518103 -2.735503 33.005817 -24.538255 14.575238 -0.000010 0.000001 -17.005901 -223.494855 153.166268 -158.232356 -0.000010 0.000002 -19.194401 570.580288 168.565380 186.509353 -3.115501 -0.679601 -2.320288 44.910338 46.174189 -12.201653 -0.000007 0.000002 -17.680401 -858.260097 185.705043 -285.259955 0.000004 -0.000002 -16.993793 1001.880889 47.059170 -434.210972
-45.993797 4.160305 43.107193 2475.752766 22.809676 1.322984 -0.201599 0.334099 6.453203 2.898209 -9.952903 -7.083635 -0.000007 0.000002 3.567996 -2.294886 3.149656 0.139152 -0.000005 -0.000003 8.296400 165.000240 -174.601260 190.460686 0.000001 0.000008 2.173906 3.409882 -7.123834 -6.636084 1.927594 0.221400 6.049001 -10.923007 -0.412756 -22.236932 4.959701 0.000001 -0.000000 193.647666 205.090213 24.981017 -0.000002 0.000000 -8.654201 53.263140 -20.673617 10.048385 -0.000002 0.000000 -13.864093 4086.472237 -161.136197 213.844603 -3.155706 -0.764999 6.687805 36.185605 8.087649 37.384217 -3.592899 -0.000001 0.000010 -193.786373 205.060761 330.629240 -0.000005 -0.000002 -10.352392 -381.685560 -27.631670 -348.459176 0.000005 -0.000001 -12.750309 17.704071 190.888488 -125.603641 2.460597 -0.518104 -2.735506 33.310966 -24.528055 14.696071 0.000001 -0.000003 -17.005903 -223.782242 153.041672 -158.120191 -0.000008 0.000010 -19.194397 571.036490 168.496368 186.298655 -3.115497 -0.679601 -2.320293 44.765384 46.198710 -12.069772 -0.000002 0.000012 -17.680395 -858.016123 185.528196 -285.253452 0.000002 -0.000003 -16.993790 1001.887774 47.101951 -433.767966
-45.986900 4.123207 43.087391 2475.735062 22.753723 1.446937 -0.201600 0.334102 6.453195 3.065278 -9.975595 -7.320939 -0.000005 0.000008 3.567989 -2.337751 3.147648 0.134232 -0.000003 0.000010 8.296385 164.971758 -174.586452 190.549096 -0.000002 -0.000002 2.173889 3.292904 -7.129021 -6.610700 1.927601 0.221406 6.048985 -11.138649 -0.272815 -21.821455 4.959702 0.000006 0.000003 193.640603 205.198622 24.609832 0.000000 0.000005 -8.654200 53.300956 -20.611853 9.994941 -0.000002 0.000003 -13.864091 4086.454752 -161.087457 213.992818 -3.155704 -0.764995 6.687786 37.205495 9.323559 36.718288 -3.592897 0.000003 0.000007 -195.605321 205.406041 331.092518 0.000000 0.000001 -10.352402 -382.253613 -27.662973 -348.609030 0.000002 -0.000002 -12.750294 18.032678 190.978182 -125.899497 2.460597 -0.518095 -2.735511 33.558980 -24.540619 14.850443 -0.000002 -0.000005 -17.005905 -224.560132 153.019515 -157.961307 -0.000008 0.000006 -19.194401 571.801799 168.462518 186.808228 -3.115499 -0.679595 -2.320299 44.996456 46.221768 -12.093023 -0.000002 0.000003 -17.680399 -858.115242 185.765887 -285.246540 0.000000 -0.000004 -16.993795 1001.599267 47.127096 -433.772364
-45.983192 4.091202 43.066891 2475.731784 22.802438 1.599018 -0.201597 0.334101 6.453209 3.138248 -10.117837 -7.634989 -0.000002 0.000000 3.567998 -2.345769 3.117820 0.129354 0.000004 0.000000 8.296391 164.985446 -174.595563 190.706067 0.000002 0.000003 2.173907 3.214937 -7.229636 -6.652687 1.927601 0.221404 6.048995 -11.242649 -0.258928 -21.400876 4.959703 -0.000001 -0.000002 193.495776 205.147177 24.101793 -0.000002 0.000001 -8.654195 53.500926 -20.388282 10.084736 -0.000001 -0.000003 -13.864099 4086.258916 -161.146224 214.060642 -3.155701 -0.764999 6.687800 37.711619 9.983828 36.681292 -3.592905 0.000004 0.000003 -196.763557 205.481474 331.100879 0.000001 0.000004 -10.352403 -382.765577 -27.675652 -348.883604 -0.000001 0.000007 -12.750289 18.047421 190.751351 -126.124429 2.460598 -0.518098 -2.735508 33.742224 -24.687879 15.041234 -0.000005 -0.000005 -17.005898 -225.211800 152.900014 -157.870820 -0.000008 0.000002 -19.194405 572.461486 168.491792 187.180760 -3.115492 -0.679596 -2.320293 45.304191 46.134059 -12.166196 -0.000004 -0.000004 -17.680399 -858.339382 185.912258 -285.251349 0.000002 -0.000007 -16.993793 1001.329665 47.179019 -433.728296
-45.983398 4.066811 43.048691 2475.621845 22.663276 1.768430 -0.201599 0.334091 6.453198 3.456198 -10.007375 -7.788354 0.000002 0.000001 3.568002 -2.428296 3.123375 0.121096 0.000000 0.000000 8.296396 164.943345 -174.521852 190.694374 -0.000004 -0.000003 2.173898 3.120141 -7.253038 -6.617854 1.927603 0.221404 6.048997 -11.056532 -0.367912 -21.264621 4.959699 0.000005 0.000005 193.238332 205.089284 23.939094 0.000001 0.000001 -8.654200 53.839523 -20.273919 10.110194 -0.000006 -0.000003 -13.864091 4086.098489 -161.287950 214.122592 -3.155699 -0.764997 6.687809 37.005815 9.316878 37.169616 -3.592896 -0.000002 0.000010 -196.732534 204.851006 330.413188 -0.000007 -0.000003 -10.352409 -383.490752 -27.680002 -348.802844 -0.000001 0.000003 -12.750294 18.103126 190.675905 -126.280021 2.460595 -0.518104 -2.735512 34.104992 -24.672076 15.181257 -0.000007 -0.000004 -17.005894 -225.958108 152.724341 -157.758068 -0.000003 0.000006 -19.194399 573.071504 168.502666 187.321954 -3.115499 -0.679603 -2.320299 45.686142 46.267244 -12.252372 -0.000008 0.000004 -17.680397 -858.649691 186.507263 -285.136793 0.000005 -0.000011 -16.993793 1000.628833 47.319072 -433.772146
-45.985901 4.048004 43.033291 2475.459450 22.946961 1.884980 -0.201596 0.334097 6.453203 3.838646 -10.321548 -7.781789 -0.000007 0.000001 3.567997 -2.486604 3.128541 0.115406 0.000002 0.000003 8.296397 164.860631 -174.483712 190.615526 0.000004 -0.000004 2.173889 3.056246 -7.295937 -6.601018 1.927606 0.221408 6.048995 -10.946351 -0.386547 -21.286394 4.959702 -0.000008 0.000008 193.128271 205.083656 23.914352 -0.000006 0.000004 -8.654200 54.317342 -20.204128 10.214039 -0.000003 -0.000004 -13.864115 4085.652177 -161.544697 214.194309 -3.155700 -0.764996 6.687799 36.899875 9.071174 37.471002 -3.592904 0.000003 0.000018 -196.888180 204.595776 330.117085 -0.000005 0.000007 -10.352400 -383.733278 -27.695971 -348.926361 0.000003 0.000001 -12.750299 18.136688 190.491599 -126.488984 2.460598 -0.518101 -2.735500 34.722202 -24.961997 15.689969 0.000001 -0.000001 -17.005898 -227.046047 152.594663 -157.562656 -0.000013 -0.000001 -19.194401 573.751627 168.557212 187.667644 -3.115497 -0.679599 -2.320292 45.422677 46.045761 -11.777733 -0.000009 -0.000002 -17.680397 -858.469756 186.310185 -285.236158 0.000003 -0.000003 -16.993792 1000.643696 47.298910 -433.507025
